<?xml version="1.0" encoding="UTF-8"?>
<svg id="Capa_2" data-name="Capa 2" xmlns="http://www.w3.org/2000/svg" viewBox="0 0 100 79.69">
  <defs>
    <style>
      .cls-1 {
        fill: #fff;
        stroke-width: 0px;
      }
    </style>
  </defs>
  <g id="Capa_1-2" data-name="Capa 1">
    <path id="bootstrap_-_blanco" data-name="bootstrap - blanco" class="cls-1" d="M49.94,79.63c-9.6,0-19.2-.14-28.8.06-5.34.11-10.32-4.28-10.1-10.43.2-5.5-.07-10.97-1.46-16.32-.75-2.91-1.72-5.82-4.05-7.87-1.23-1.09-2.83-1.8-4.33-2.52-.7-.33-1.23-.56-1.12-1.43.02-.18,0-.37,0-.55.02-.92-.26-2.03.16-2.71.38-.61,1.54-.73,2.34-1.08,2.99-1.31,4.69-3.79,5.89-6.66,1.64-3.92,2.24-8.06,2.48-12.26.17-3.08-.04-6.19.28-9.24C11.77,3.47,15.87,0,21.06,0,40.4,0,59.74,0,79.08,0c.51,0,1.02.02,1.52.1,5.03.81,8.46,4.99,8.34,10.3-.12,5.5,0,10.99,1.5,16.31.59,2.1,1.49,4.17,2.55,6.08,1.27,2.29,3.26,3.88,5.92,4.38.8.15,1.1.53,1.02,1.3-.02.18,0,.37,0,.55-.02.97.27,2.12-.16,2.84-.36.62-1.56.74-2.38,1.09-3.06,1.31-4.73,3.86-5.91,6.8-2.05,5.09-2.46,10.46-2.56,15.87-.03,1.89.08,3.79-.15,5.66-.61,4.89-4.66,8.35-9.6,8.35-9.74,0-19.48,0-29.22,0h0ZM57.77,38.58c.37-.16.54-.24.71-.31,3.62-1.31,5.88-3.9,6.43-7.64.61-4.09-.77-7.55-4.3-9.96-2.62-1.79-5.59-2.29-8.69-2.3-5.31,0-10.62.02-15.93-.03-1.17-.01-1.58.26-1.58,1.53.05,13.33.04,26.67.01,40,0,1.05.27,1.47,1.38,1.46,5.36-.05,10.71-.03,16.07-.04,2.93,0,5.79-.36,8.51-1.55,4.78-2.1,7.47-6.94,6.77-12.15-.64-4.7-4.24-8.22-9.38-9.01ZM54.28,55.12c1.78-.15,3.46-1.01,4.51-2.65,1.39-2.15,1.54-4.47.49-6.73-1.2-2.59-3.67-3.48-6.27-3.64-3.4-.22-6.83-.08-10.24-.15-.86-.02-1.11.32-1.1,1.14.03,3.83.02,7.66.03,11.49,0,.26.06.53.13,1.08,4.19-.16,8.33-.2,12.45-.54ZM49.99,36.41c1.35-.06,2.75-.35,4.03-.81,2.94-1.06,4.2-3.31,3.78-6.39-.37-2.79-2.29-4.68-5.32-4.85-3.26-.18-6.54-.1-9.81-.15-.69-.01-.99.26-.99.97.02,3.68,0,7.37,0,11.26,2.89,0,5.6.09,8.3-.04Z"/>
  </g>
</svg>