<?xml version="1.0" encoding="UTF-8"?>
<svg id="Capa_2" data-name="Capa 2" xmlns="http://www.w3.org/2000/svg" viewBox="0 0 99.93 99.93">
  <defs>
    <style>
      .cls-1 {
        fill: #4fcc03;
      }

      .cls-1, .cls-2 {
        stroke-width: 0px;
      }

      .cls-2 {
        fill: #fff;
      }
    </style>
  </defs>
  <g id="DESIGNER">
    <g id="COLOR">
      <g id="COREL">
        <g>
          <path class="cls-1" d="M51.52,46.73L17.75,11.77c-1.8,1.52-3.5,3.17-5.07,4.93l33.75,34.94,5.09-4.91Z"/>
          <path class="cls-1" d="M49.96,0c-9.62,0-18.61,2.72-26.23,7.43l37.22,38.53-24.29,23.46L2.57,34.12c-1.66,4.98-2.57,10.31-2.57,15.85,0,27.59,22.37,49.96,49.96,49.96s49.96-22.37,49.96-49.96S77.56,0,49.96,0Z"/>
          <path class="cls-2" d="M60.95,45.96L23.73,7.43c-2.1,1.3-4.11,2.75-5.99,4.34l33.77,34.96-5.09,4.91L12.68,16.7c-4.47,5-7.94,10.91-10.11,17.42l34.1,35.3,24.29-23.46Z"/>
        </g>
        <polygon class="cls-2" points="38.51 70.97 62.76 47.48 73.26 82.6 38.51 70.97"/>
      </g>
    </g>
  </g>
</svg>