<?xml version="1.0" encoding="UTF-8"?>
<svg id="Capa_2" data-name="Capa 2" xmlns="http://www.w3.org/2000/svg" viewBox="0 0 88.48 100">
  <defs>
    <style>
      .cls-1 {
        fill: #1775bb;
        stroke-width: 0px;
      }
    </style>
  </defs>
  <g id="Capa_1-2" data-name="Capa 1">
    <path id="css" class="cls-1" d="M19.64,93.92c-3.59-1.02-7.19-2.01-10.76-3.09-.41-.12-.95-.69-.99-1.09-1.32-14.7-2.58-29.41-3.87-44.12C2.78,31.39,1.51,17.17.25,2.94c-.01-.17-.09-.33-.13-.49C-.32.41.47,0,2.52,0c28.65.08,57.31.06,85.97.06-.82,9.04-1.63,18.07-2.46,27.11-1.39,15.16-2.8,30.31-4.2,45.47-.53,5.72-1.04,11.45-1.62,17.16-.04.4-.54.98-.93,1.08-7.27,1.93-14.56,3.8-21.84,5.69-4.48,1.16-8.9,2.65-13.45,3.37-2.13.33-4.5-.81-6.76-1.3-.67-.14-1.33-.31-2-.46h0c-5.2-1.42-10.39-2.85-15.59-4.27h0ZM28.55,36.47c-4.32,1.19-8.64,2.36-12.94,3.6-.32.09-.51.67-.76,1.02h0c.35,2.89.64,5.8,1.1,8.68.07.47.88,1.16,1.36,1.17,13.81.12,27.62.16,41.42.3.43,0,1.25.98,1.22,1.45-.3,4.36-.73,8.72-1.17,13.07-.05.46-.37,1.2-.69,1.28-1.94.49-3.94.77-5.89,1.23-5.82,1.35-11.54,2.38-17.53.38-2.72-.91-5.15-1.33-5.08-4.83h0c-.22-1.29-.38-2.59-.71-3.85-.1-.37-.68-.86-1.05-.86-3.48-.07-6.96-.07-10.44,0-.3,0-.88.69-.85.99.62,5.14,1.29,10.28,2.04,15.4.07.48.71,1.15,1.2,1.27,3.39.79,6.79,1.63,10.24,2.12,5.18.73,10.1,3.16,15.61,1.9,7.33-1.68,14.74-2.96,22.1-4.48.43-.09,1-.75,1.05-1.19,1.14-11.18,2.23-22.37,3.23-33.56.04-.44-.87-1.39-1.35-1.4-4.88-.1-9.76-.06-14.63-.07-.42,0-.85-.12-1.27-.18.39-.16.77-.35,1.17-.48,5.72-1.84,11.44-3.68,17.16-5.52,0,0,0,0,0,0,.08-.08.22-.15.24-.23.5-4.17,1-8.34,1.45-12.52.02-.16-.51-.55-.78-.55-20.17-.03-40.35-.03-60.52.02-.32,0-.93.71-.9,1.03.29,2.94.65,5.89,1.13,8.8.08.46.88,1.15,1.34,1.16,9.47.07,18.95.04,28.42.05.3,0,.6.08.9.13-.28.14-.54.33-.84.41-4.99,1.43-9.98,2.84-14.97,4.26h0Z"/>
  </g>
</svg>