<?xml version="1.0" encoding="UTF-8"?>
<svg id="Capa_2" data-name="Capa 2" xmlns="http://www.w3.org/2000/svg" viewBox="0 0 100 100">
  <defs>
    <style>
      .cls-1 {
        fill: #013301;
      }

      .cls-1, .cls-2 {
        stroke-width: 0px;
      }

      .cls-2 {
        fill: #3f6;
      }
    </style>
  </defs>
  <g id="DESIGNER">
    <g id="COLOR">
      <g id="DIMENSION">
        <rect class="cls-1" width="100" height="100" rx="17.62" ry="17.62"/>
        <path class="cls-2" d="M14.77,46.92c0-6.96,0-13.92,0-20.88,0-.87.08-.94.93-.98,1.74-.08,3.48-.07,5.22-.11,2.37-.05,4.74-.07,7.11-.07,3.06,0,6.09.25,9.06,1.04,3.11.83,5.95,2.19,8.4,4.31,2.78,2.4,4.63,5.4,5.69,8.91.9,2.98,1.11,6.03.92,9.11-.2,3.15-.95,6.18-2.44,8.99-1.9,3.6-4.68,6.33-8.17,8.37-2.59,1.52-5.39,2.46-8.35,2.95-1.55.26-3.1.4-4.67.39-3.67-.01-7.34-.02-11-.04-.71,0-1.42-.05-2.13-.08-.38-.02-.48-.1-.53-.46-.03-.2-.03-.41-.03-.61,0-6.94,0-13.89,0-20.83Z"/>
        <path class="cls-2" d="M64.94,38.22c.16,0,.22-.08.29-.14,1.98-1.63,4.25-2.59,6.77-2.98,2.08-.32,4.13-.24,6.14.41,3.05.98,5.17,2.96,6.36,5.94.65,1.63.93,3.34,1.04,5.09.08,1.2.07,2.4.07,3.6,0,5.9,0,11.8,0,17.7,0,.92-.07.99-1,.99-2.47,0-4.93,0-7.4,0-.13,0-.25,0-.38,0-.3-.04-.48-.23-.51-.53-.01-.13,0-.25,0-.38,0-6.33,0-12.66,0-18.98,0-.91-.14-1.79-.42-2.66-.67-2.04-2.17-3.23-4.31-3.33-2.08-.1-3.97.46-5.62,1.77-.31.24-.44.5-.44.92.01,7.4.01,14.81.01,22.21,0,.95-.04.99-.99.99-2.47,0-4.93,0-7.4,0-.13,0-.25,0-.38,0-.31-.03-.49-.2-.53-.51-.02-.14,0-.28,0-.43,0-8.45,0-16.89,0-25.34,0-2.04-.09-4.08-.22-6.12,0-.02,0-.03,0-.05-.06-.75-.02-.79.71-.79,2.17,0,4.33,0,6.5,0,.17,0,.35,0,.52.02.33.06.57.22.68.58.21.66.45,1.31.53,2.03Z"/>
        <path class="cls-1" d="M24.02,46.93c0-4.41,0-8.82,0-13.24,0-.64-.09-.58.59-.61,1.88-.09,3.76-.21,5.64-.02,2.15.22,4.25.64,6.17,1.69,2.76,1.51,4.57,3.78,5.46,6.8.61,2.06.76,4.15.61,6.29-.12,1.67-.43,3.29-1.04,4.85-1.58,4.07-4.52,6.62-8.74,7.7-2.05.53-4.14.66-6.25.51-.71-.05-1.42-.07-2.13-.09-.21,0-.33-.07-.31-.3.01-.13,0-.25,0-.38,0-4.4,0-8.79,0-13.19Z"/>
      </g>
    </g>
  </g>
</svg>