<?xml version="1.0" encoding="UTF-8"?>
<svg id="Capa_2" data-name="Capa 2" xmlns="http://www.w3.org/2000/svg" viewBox="0 0 66.46 99.73">
  <defs>
    <style>
      .cls-1 {
        fill: #f04d1e;
      }

      .cls-1, .cls-2, .cls-3, .cls-4, .cls-5 {
        stroke-width: 0px;
      }

      .cls-2 {
        fill: #fd7161;
      }

      .cls-3 {
        fill: #a158fd;
      }

      .cls-4 {
        fill: #0ace82;
      }

      .cls-5 {
        fill: #1abbfc;
      }
    </style>
  </defs>
  <g id="DESIGNER">
    <g id="COLOR">
      <g id="FIGMA">
        <path class="cls-1" d="M16.52,0h16.7c.05.05.05.12.06.19,0,.08,0,.16,0,.24,0,10.79,0,21.59,0,32.38q0,.48-.48.48c-5.47,0-10.93,0-16.4,0-.04,0-.07,0-.11,0-.16-.01-.33,0-.49,0-1.83-.11-3.6-.48-5.31-1.16-1.78-.71-3.4-1.69-4.83-2.97-1.51-1.33-2.75-2.87-3.7-4.65-.98-1.83-1.6-3.76-1.86-5.81-.12-.92-.1-1.85-.09-2.78.01-.81.11-1.62.26-2.41.22-1.19.58-2.35,1.06-3.46.63-1.46,1.45-2.81,2.46-4.04,1.42-1.71,3.11-3.08,5.07-4.12,1.59-.84,3.28-1.41,5.05-1.71.55-.09,1.1-.15,1.66-.15.07,0,.13,0,.2,0,.09,0,.18,0,.27,0,.16-.01.32.03.48-.02Z"/>
        <path class="cls-2" d="M33.27,0h17.06c.12.04.24,0,.35.02.08,0,.15,0,.23,0,.99,0,1.96.17,2.91.4,1.21.29,2.38.72,3.49,1.28,1.24.62,2.39,1.38,3.44,2.3,1.63,1.43,2.95,3.1,3.94,5.04.69,1.34,1.18,2.75,1.49,4.22.17.81.28,1.62.27,2.45,0,.12,0,.23,0,.35,0,.36,0,.72,0,1.07,0,.12,0,.23,0,.35.01,1.38-.27,2.72-.67,4.03-.27.91-.62,1.78-1.05,2.62-.64,1.26-1.42,2.43-2.36,3.49-.97,1.09-2.04,2.06-3.25,2.86-1.21.81-2.5,1.45-3.88,1.92-1.14.39-2.3.65-3.49.79-.36.04-.71.05-1.07.09-.24,0-.48,0-.72,0-.2,0-.41,0-.61,0-.58,0-1.15,0-1.73,0-4.66,0-9.32,0-13.98,0-.13,0-.27.03-.39-.06-.03-.07-.02-.14-.02-.22,0-10.94,0-21.87,0-32.81,0-.07-.02-.15.02-.22Z"/>
        <path class="cls-4" d="M33.23,66.49c0,.07.02.14.02.22,0,5.43,0,10.86,0,16.29,0,4.71-1.7,8.74-5.05,12.04-2.45,2.4-5.39,3.87-8.77,4.46-.58.1-1.16.16-1.74.2-.08.03-.16,0-.24.01-.12.01-.24-.02-.36.02h-.92c-.13-.05-.26,0-.39-.02-.06,0-.13,0-.19,0-.88,0-1.74-.14-2.6-.33-1.27-.28-2.49-.71-3.66-1.28-1.24-.61-2.39-1.36-3.44-2.26-.9-.76-1.71-1.61-2.43-2.55-.88-1.13-1.59-2.36-2.15-3.67-.66-1.54-1.07-3.15-1.24-4.81-.08-.82-.06-1.64-.05-2.47.02-.9.13-1.79.31-2.67.25-1.22.65-2.4,1.17-3.53.64-1.4,1.46-2.69,2.46-3.85,1.3-1.51,2.8-2.77,4.55-3.74,1.74-.97,3.59-1.62,5.56-1.92.46-.07.92-.14,1.38-.15.12,0,.23-.05.36-.04.18,0,.36,0,.54,0,4.42,0,8.83,0,13.25,0,1.1,0,2.2,0,3.31,0,.11,0,.23-.02.33.06Z"/>
        <path class="cls-3" d="M16.36,33.23c.12.05.25.02.37.02,5.44,0,10.88,0,16.31,0,.07,0,.13,0,.2,0,.06.08.05.18.05.27,0,4.74,0,9.49,0,14.23,0,.35,0,.69,0,1.04,0,.09,0,.17.03.26.02.07.02.14.02.22-.01.38-.02.76,0,1.14,0,.09.01.19-.07.26-.04.08-.02.16-.02.24,0,5.11,0,10.21,0,15.32,0,.09,0,.19-.01.28-.19,0-.37,0-.56,0-5.34,0-10.67,0-16.01,0-.11,0-.23,0-.34,0-.18-.03-.37.01-.56-.02-3.49-.21-6.64-1.36-9.39-3.54-3.1-2.45-5.08-5.61-5.96-9.47-.3-1.33-.44-2.69-.39-4.05.13-3.71,1.33-7.03,3.65-9.93,2.02-2.52,4.56-4.29,7.6-5.35,1.3-.45,2.63-.73,4-.82.16-.01.32-.03.48-.04.17-.03.35,0,.52-.02.02,0,.05,0,.07,0Z"/>
        <path class="cls-5" d="M33.26,50.66c0-.53,0-1.07,0-1.6-.02-.51.02-1.01.09-1.51.22-1.55.64-3.04,1.28-4.47.62-1.38,1.39-2.66,2.36-3.82,1.08-1.3,2.32-2.43,3.74-3.35,2.09-1.36,4.36-2.21,6.82-2.57.6-.09,1.2-.09,1.81-.1.21,0,.41,0,.62,0,.25.03.5-.01.75.03,3.82.23,7.18,1.58,10.06,4.09,2.73,2.39,4.48,5.37,5.29,8.91.2.87.31,1.75.37,2.64,0,.07,0,.13,0,.2,0,.09,0,.19,0,.28,0,.35,0,.7,0,1.04,0,.12,0,.24,0,.36-.24,3.96-1.7,7.41-4.37,10.34-2.33,2.54-5.19,4.19-8.55,4.96-1.79.41-3.6.51-5.42.31-2.97-.32-5.67-1.35-8.07-3.13-3.36-2.5-5.5-5.8-6.41-9.89-.2-.89-.3-1.79-.36-2.7Z"/>
      </g>
    </g>
  </g>
</svg>