<?xml version="1.0" encoding="UTF-8"?>
<svg id="Capa_2" data-name="Capa 2" xmlns="http://www.w3.org/2000/svg" viewBox="0 0 100 100">
  <defs>
    <style>
      .cls-1 {
        fill: #fff;
        stroke-width: 0px;
      }
    </style>
  </defs>
  <g id="Capa_1-2" data-name="Capa 1">
    <path id="git" class="cls-1" d="M53.69,37.41c.16.15.25.22.33.3,3.19,3.19,6.37,6.37,9.56,9.55.25.25.31.44.19.8-1.55,4.51,1.36,9.31,6.08,10.07,4.27.68,8.22-2.23,8.87-6.53.61-4.1-2.32-8.07-6.41-8.68-1.15-.17-2.28-.12-3.39.21-.25.08-.4.03-.58-.15-3.52-3.53-7.05-7.06-10.59-10.58-.2-.2-.18-.37-.12-.59,1.19-4.29-1.27-8.54-5.57-9.63-1.31-.33-2.61-.28-3.91.06-.17.04-.45,0-.57-.12-3.7-3.67-7.38-7.36-11.06-11.04-.05-.05-.09-.11-.14-.19.11-.12.2-.23.3-.33,2.85-2.85,5.71-5.7,8.56-8.56C46.59.64,48.22-.07,50.16,0c1.59.06,2.96.65,4.13,1.73.11.1.21.2.31.31,14.44,14.44,28.87,28.87,43.31,43.3,1.07,1.07,1.8,2.3,2.01,3.81.29,2.12-.3,3.96-1.8,5.47-3.16,3.19-6.35,6.36-9.52,9.53-11.27,11.27-22.54,22.54-33.81,33.81-1.39,1.39-3.04,2.11-5.02,2.02-1.57-.07-2.93-.67-4.08-1.73-.13-.12-.25-.25-.38-.37-14.43-14.42-28.85-28.85-43.28-43.27C.73,53.3,0,51.75,0,49.87c0-1.79.67-3.31,1.93-4.57,4.14-4.14,8.28-8.28,12.42-12.42,5.72-5.72,11.44-11.44,17.16-17.15.09-.09.19-.18.36-.34.15.19.27.37.43.53,3.49,3.5,6.99,7,10.49,10.49.22.22.29.39.17.71-1.31,3.67.34,7.73,3.84,9.45.36.18.47.38.47.77-.01,8.79-.01,17.58,0,26.37,0,.4-.13.58-.48.76-2.82,1.5-4.28,3.87-4.27,7.05,0,3.8,2.93,6.99,6.71,7.48,4.27.55,8.11-2.44,8.65-6.69.39-3.02-1.15-6.17-3.87-7.65-.27-.15-.37-.32-.37-.62,0-8.72,0-17.44,0-26.15,0-.13.02-.26.03-.48Z"/>
  </g>
</svg>