<?xml version="1.0" encoding="UTF-8"?>
<svg id="Capa_2" data-name="Capa 2" xmlns="http://www.w3.org/2000/svg" viewBox="0 0 100 100">
  <defs>
    <style>
      .cls-1 {
        fill: #000;
      }

      .cls-1, .cls-2 {
        stroke-width: 0px;
      }

      .cls-2 {
        fill: #fff;
      }
    </style>
  </defs>
  <g id="Capa_1-2" data-name="Capa 1">
    <g id="github">
      <circle class="cls-2" cx="50" cy="50" r="50"/>
      <path id="github-2" data-name="github" class="cls-1" d="M59.24,72.41c1.96-.39,4-.73,6.01-1.2,2.89-.68,5.6-1.81,8.04-3.53,3.1-2.18,5.29-5.09,6.6-8.64,1.81-4.91,2.28-9.98,1.54-15.15-.51-3.55-2.06-6.66-4.41-9.35-.27-.31-.33-.57-.2-.98,1.35-4.18.96-8.3-.52-12.37-.15-.42-.43-.47-.8-.49-2.02-.08-3.96.39-5.74,1.25-2.27,1.09-4.46,2.36-6.67,3.59-.45.25-.81.38-1.33.25-7.89-2.01-15.79-1.98-23.69,0-.32.08-.78-.01-1.06-.19-2.79-1.8-5.64-3.49-8.88-4.36-1.18-.32-2.44-.37-3.67-.53-.45-.06-.7.17-.85.61-1.44,4.08-1.8,8.2-.45,12.38.07.21,0,.55-.14.72-3.73,4.37-5.12,9.46-4.78,15.12.2,3.37.68,6.68,1.95,9.83,2.35,5.89,6.75,9.54,12.71,11.35,2.54.77,5.18,1.2,7.79,1.79.03-.07.01.02-.04.08-1.53,1.6-2.38,3.54-2.73,5.69-.1.61-.35.94-.95,1.16-3.09,1.14-6.17,1.49-9.24-.02-2.01-.99-3.4-2.63-4.53-4.51-1.01-1.69-2.35-3.07-4.07-4.04-1.32-.75-2.73-1.2-4.29-1.04-.11.01-.24,0-.34.06-.39.21-1.02.38-1.08.67-.08.36.25.87.52,1.23.25.34.63.62,1,.83,2.86,1.66,4.51,4.27,5.69,7.23,1.29,3.23,3.68,5.21,6.92,6.24,2.64.83,5.35.78,8.06.39.61-.09,1.21-.2,1.93-.32,0,1.72,0,3.37,0,5.02,0,1.22.02,2.44.05,3.66.07,2.58-1.48,3.72-3.93,2.86-6.58-2.31-12.45-5.81-17.53-10.59C7.44,78.92,2.03,68.9.62,57.03-1.6,38.29,4.58,22.66,19.25,10.71,28.7,3.01,39.75-.59,51.91.08c18.95,1.03,33.04,10.15,42.15,26.76,4.69,8.55,6.46,17.86,5.52,27.55-1.7,17.55-10.26,30.84-25.5,39.73-2.43,1.42-5.12,2.37-7.7,3.53-.29.13-.61.21-.92.27-1.88.36-3.18-.7-3.18-2.62.02-4.46.07-8.92.09-13.39,0-2.39-.27-4.74-1.4-6.89-.49-.92-1.15-1.76-1.72-2.61Z"/>
    </g>
  </g>
</svg>