<?xml version="1.0" encoding="UTF-8"?>
<svg id="Capa_2" data-name="Capa 2" xmlns="http://www.w3.org/2000/svg" viewBox="0 0 88.2 100">
  <defs>
    <style>
      .cls-1 {
        fill: #ee652a;
      }

      .cls-1, .cls-2, .cls-3 {
        stroke-width: 0px;
      }

      .cls-2 {
        fill: #e24f26;
      }

      .cls-3 {
        fill: #fefefe;
      }
    </style>
  </defs>
  <g id="Capa_1-2" data-name="Capa 1">
    <g id="HTML">
      <path class="cls-2" d="M.1.1C29.32.38,59.4-.45,88.2.38c-.24,2.51-.45,5.03-.67,7.55-1.25,13.92-2.48,27.83-3.73,41.75-.89,10.01-1.78,20.02-2.67,30.04-.29,3.27-.6,6.53-.87,9.8-.02.32-.17.48-.49.57-3.16.87-6.31,1.77-9.46,2.65-8.81,2.34-17.54,5.21-26.4,7.26-11.14-2.86-22.15-6.26-33.24-9.3-.58-.28-2.72-.46-2.7-1.09-.8-8.84-1.58-17.68-2.37-26.52-1.26-14.16-2.52-28.32-3.79-42.48-.44-4.92-.87-9.85-1.32-14.77C.34,4.2.21,2.55.05.91.07.64-.11.31.1.1Z"/>
      <path class="cls-1" d="M44.2,7.72q0-.41.39-.41c11.73.21,24.06-.41,35.5.21-.79,8.53-1.52,17.07-2.28,25.6-.8,8.97-1.59,17.94-2.39,26.91-.57,6.24-1.11,12.48-1.66,18.73-.12,1.25-.23,2.5-.34,3.75-.14.51.11,1.57-.4,1.74-6.52,1.78-13.04,3.59-19.56,5.38-2.99.82-5.99,1.65-8.98,2.47-.27.07-.28.06-.28-.23,0-3.52,0-7.04,0-10.56.01-.27-.14-40.83-.12-41.05,0-3.5,0-7.01,0-10.51-.07-.62.12-18.48.12-22.05Z"/>
      <path class="cls-3" d="M44.01,18.45s0,0,0,0c-9.08.15-18.69-.34-27.51.17.3,4.44.75,8.87,1.14,13.31.58,6.53,1.18,13.06,1.75,19.59,7.71.84,33.41.3,37.78.41.37-.03.34.25.32.53-.3,2.87-.55,5.75-.83,8.63-.23.79-.11,5.02-.82,4.97-3.77,1.02-7.53,2.03-11.3,3.05-.22.03-.32.24-.54.28-4.02-1.11-8.05-2.17-12.08-3.26-.5-.15-.55-3.01-.56-3.91.02-.69-.05-4.92-.76-4.94-3.39.01-6.78,0-10.17,0q-.44,0-.4.45c.28,3.77.59,7.53.89,11.3.14,1.8.29,3.6.42,5.39.01.17.07.24.24.29,7.47,2.05,14.94,4.13,22.41,6.17v-.02c.12.04.32-.06.47-.1,7.3-2.22,15.15-3.8,22.18-6.32.34-3.71.67-7.43,1-11.14.71-7.43,1.15-14.89,2.06-22.3.04-.29.04-.3-.28-.3-8.41,0-34.5-.03-39.03-.12-.31,0-.76.07-.76-.36-.05-.61-.1-1.21-.15-1.82-.16-1.89-.32-3.79-.49-5.68-.08-.87-.14-1.73-.23-2.6-.06-.56-.01-.62.55-.62,4.82,0,9.64.01,14.46,0,.14.02.22-.04.27-.12,8.73-.21,18.23.46,26.7-.23.15-2.12.39-4.24.61-6.36.15-1.33.22-2.67.32-4.01-8.5-.92-18.66-.02-27.69-.31Z"/>
    </g>
  </g>
</svg>