<?xml version="1.0" encoding="UTF-8"?>
<svg id="Capa_2" data-name="Capa 2" xmlns="http://www.w3.org/2000/svg" viewBox="0 0 88.2 100">
  <defs>
    <style>
      .cls-1 {
        fill: #fff;
        stroke-width: 0px;
      }
    </style>
  </defs>
  <g id="Capa_1-2" data-name="Capa 1">
    <g id="HTML">
      <path class="cls-1" d="M.1.1c-.21.21-.03.55-.05.82.16,1.64.29,3.28.44,4.92.44,4.92.88,9.85,1.32,14.77,1.27,14.16,2.52,28.32,3.79,42.48.79,8.84,1.57,17.68,2.37,26.52-.02.64,2.12.81,2.7,1.09,11.1,3.04,22.1,6.43,33.24,9.3,8.86-2.06,17.59-4.93,26.4-7.27,3.15-.88,6.3-1.78,9.46-2.65.32-.09.46-.25.49-.57.27-3.27.58-6.53.87-9.8.89-10.01,1.78-20.02,2.67-30.04,1.24-13.92,2.48-27.83,3.73-41.75.23-2.51.43-5.03.67-7.55C59.4-.45,29.32.38.1.1ZM71.38,22.77c-.23,2.12-.46,4.23-.61,6.36-8.47.7-17.97.02-26.7.23-.05.09-.13.14-.27.12-4.82.02-9.64,0-14.46,0-.57,0-.61.06-.55.62.09.86.15,1.73.23,2.6.17,1.89.33,3.79.49,5.68.05.61.1,1.21.15,1.82,0,.43.45.36.76.36,4.53.08,30.62.11,39.03.12.31,0,.32,0,.28.3-.91,7.41-1.35,14.87-2.06,22.3-.32,3.72-.66,7.43-1,11.14-7.03,2.52-14.88,4.11-22.18,6.32-.15.04-.35.14-.47.1v.02c-7.48-2.04-14.94-4.12-22.41-6.17-.17-.05-.23-.12-.24-.29-.14-1.8-.28-3.6-.42-5.39-.3-3.77-.6-7.53-.89-11.3q-.04-.45.4-.45c3.39,0,6.78,0,10.17,0,.71.02.77,4.25.76,4.94,0,.9.06,3.76.56,3.91,4.03,1.09,8.06,2.15,12.08,3.26.22-.04.31-.25.54-.28,3.77-1.01,7.53-2.03,11.3-3.05.71.05.59-4.18.82-4.97.28-2.88.53-5.76.83-8.63.02-.27.05-.56-.32-.53-4.37-.11-30.07.43-37.78-.41-.57-6.53-1.17-13.06-1.75-19.59-.38-4.44-.84-8.87-1.14-13.31,8.82-.5,18.43-.02,27.51-.17,0,0,0,0,0,0,9.03.29,19.19-.61,27.69.31-.1,1.34-.17,2.68-.32,4.01Z"/>
      <path class="cls-1" d="M44.59,7.32q-.39,0-.39.41c0,1.62-.04,6.17-.07,10.72,9,.28,19.11-.61,27.57.31-.1,1.34-.17,2.68-.32,4.01-.23,2.12-.46,4.23-.61,6.36-8.47.69-17.96.02-26.69.23,0,.22,0,.37.01.41,0,3.5,0,7.01,0,10.51,0,.01,0,.14,0,.36,9.23.03,20.38.04,25.36.04.31,0,.32,0,.28.3-.91,7.41-1.35,14.87-2.06,22.3-.32,3.72-.66,7.43-1,11.14-7.03,2.52-14.88,4.11-22.18,6.32-.09.02-.18.06-.28.08,0,.31,0,.49,0,.5,0,3.52,0,7.04,0,10.56,0,.29.02.3.28.23,2.99-.83,5.98-1.65,8.98-2.47,6.52-1.79,13.03-3.59,19.56-5.38.51-.17.26-1.23.4-1.74.11-1.25.22-2.5.34-3.75.55-6.24,1.09-12.49,1.66-18.73.8-8.97,1.59-17.94,2.39-26.91.76-8.53,1.5-17.07,2.28-25.6-11.44-.62-23.77,0-35.5-.21Z"/>
      <path class="cls-1" d="M55.84,66.05c.71.05.59-4.18.82-4.97.28-2.88.53-5.76.83-8.63.02-.27.05-.56-.32-.53-1.76-.04-6.96.02-13.06.05.02,5.42.04,11.86.06,17.33.12-.08.22-.19.38-.21,3.77-1.01,7.53-2.03,11.3-3.05Z"/>
    </g>
  </g>
</svg>