<?xml version="1.0" encoding="UTF-8"?>
<svg id="Capa_2" data-name="Capa 2" xmlns="http://www.w3.org/2000/svg" viewBox="0 0 100 100">
  <defs>
    <style>
      .cls-1 {
        fill: #340100;
      }

      .cls-1, .cls-2 {
        stroke-width: 0px;
      }

      .cls-2 {
        fill: #fe9900;
      }
    </style>
  </defs>
  <g id="DESIGNER">
    <g id="COLOR">
      <g id="ILLUSTRATOR">
        <rect class="cls-1" width="100" height="100" rx="17.62" ry="17.62"/>
        <path class="cls-2" d="M48.2,59.39h-15.45c-4.53,11.62.14,10.38-11.42,10.33-.85,0-.99-.19-.7-1,4.35-14.1,10.77-27.8,13.95-42.15-.72-1.4,9.59-.31,10.93-.63.57,0,.61.03.79.55,4.99,14.08,9.97,28.15,14.96,42.23.27.56.16,1.15-.6,1-12.52-.12-7.48,1.9-12.45-10.33ZM40.38,33.67c-1.47,5.82-3.46,11.48-5.14,17.23h10.47c-1.81-5.77-3.72-11.45-5.33-17.23Z"/>
        <path class="cls-2" d="M75.28,53.27c0,5.21,0,10.41,0,15.62,0,.42.07,1.03-.51,1.03-2.62,0-5.25,0-7.88,0-.65.11-1-.34-.91-.96,0-10.46,0-20.92,0-31.38-.02-.45.03-.94.61-.89,1.33.3,8.95-.72,8.69.63,0,5.32,0,10.63,0,15.95Z"/>
        <path class="cls-2" d="M70.64,33.19c-6.28.33-6.93-9.7-.74-10.36,7.4-1.3,8.09,10.6.74,10.36Z"/>
        <path class="cls-1" d="M40.38,33.67c1.61,5.78,3.51,11.47,5.33,17.23h-10.47c1.68-5.75,3.67-11.41,5.14-17.23Z"/>
      </g>
    </g>
  </g>
</svg>