<?xml version="1.0" encoding="UTF-8"?>
<svg id="Capa_2" data-name="Capa 2" xmlns="http://www.w3.org/2000/svg" viewBox="0 0 100 100">
  <defs>
    <style>
      .cls-1 {
        fill: #fff;
        stroke-width: 0px;
      }
    </style>
  </defs>
  <g id="DESIGNER">
    <g id="BLANCO">
      <g id="IN_DESIGN" data-name="IN DESIGN">
        <path class="cls-1" d="M64.91,53.49v-8.79c0-.11,0-.23,0-.34.02-.2-.09-.3-.27-.33-.51-.1-1.02-.16-1.54-.21-1.82-.16-3.66.13-5.3.93-2.13,1.04-3.79,2.55-4.67,4.74-.48,1.19-.61,2.46-.67,3.75-.03.83.01,1.67.16,2.5.42,2.34,1.32,4.37,3.14,5.73,1.86,1.39,4.02,1.75,6.27,1.72.52,0,1.04-.05,1.56-.06.34,0,.68-.07,1.01-.14.2-.04.32-.14.3-.37-.01-.11,0-.23,0-.34v-8.79Z"/>
        <path class="cls-1" d="M82.38,0H17.62C7.89,0,0,7.89,0,17.62v64.77c0,9.73,7.89,17.62,17.62,17.62h64.77c9.73,0,17.62-7.89,17.62-17.62V17.62c0-9.73-7.89-17.62-17.62-17.62ZM36.02,69.87c0,.97-.1,1.07-1.05,1.07-2.5,0-5.01,0-7.51,0-.86,0-.98-.11-.98-.99,0-11.32,0-22.65,0-33.97v-9.23c0-.13,0-.26,0-.39.02-.51.17-.67.68-.69.29-.01.59,0,.88,0,2.34,0,4.68,0,7.03,0,.53,0,.96.43.96.96,0,7.24,0,14.48,0,21.72s0,14.35,0,21.53ZM73.19,69.23c-.88.37-1.78.71-2.71.93-3.59.89-7.21,1.39-10.87,1.26-2.3-.08-4.6-.48-6.74-1.33-5.11-2.01-8.25-5.62-9.53-10.65-.6-2.36-.75-4.76-.55-7.17.62-7.38,5.6-13.14,12.18-15.3,1.61-.53,3.27-.84,4.96-1,1.53-.14,3.05-.16,4.58-.02.39.04.4.02.4-.4,0-.99,0-1.99,0-2.98v-9.57c0-.13,0-.26,0-.39.01-.55.08-.61.63-.61,2.75,0,5.5,0,8.25,0,.58,0,.63.05.63.65,0,5.37,0,10.74,0,16.11v5.27c0,5.63,0,11.26,0,16.89,0,1.5.03,2.99.09,4.49.03.78.12,1.56.17,2.34.06,1-.07.88-1.48,1.47Z"/>
      </g>
    </g>
  </g>
</svg>