<?xml version="1.0" encoding="UTF-8"?>
<svg id="Capa_2" data-name="Capa 2" xmlns="http://www.w3.org/2000/svg" viewBox="0 0 100 100">
  <defs>
    <style>
      .cls-1 {
        fill: #49021f;
      }

      .cls-1, .cls-2 {
        stroke-width: 0px;
      }

      .cls-2 {
        fill: #f36;
      }
    </style>
  </defs>
  <g id="DESIGNER">
    <g id="COLOR">
      <g id="IN_DESIGN" data-name="IN DESIGN">
        <rect class="cls-1" width="100" height="100" rx="17.62" ry="17.62"/>
        <path class="cls-2" d="M74.42,44.04c0,5.63,0,11.26,0,16.89,0,1.5.03,2.99.09,4.49.03.78.12,1.56.17,2.34.06,1-.07.88-1.48,1.47-.88.37-1.78.71-2.71.93-3.59.89-7.21,1.39-10.87,1.26-2.3-.08-4.6-.48-6.74-1.33-5.11-2.01-8.25-5.62-9.53-10.65-.6-2.36-.75-4.76-.55-7.17.62-7.38,5.6-13.14,12.18-15.3,1.61-.53,3.27-.84,4.96-1,1.53-.14,3.05-.16,4.58-.02.39.04.4.02.4-.4,0-.99,0-1.99,0-2.98,0-3.19,0-6.38,0-9.57,0-.13,0-.26,0-.39.01-.55.08-.61.63-.61,2.75,0,5.5,0,8.25,0,.58,0,.63.05.63.65,0,5.37,0,10.74,0,16.11v5.27Z"/>
        <path class="cls-1" d="M64.91,53.49c0,2.93,0,5.86,0,8.79,0,.11-.01.23,0,.34.02.23-.1.32-.3.37-.33.08-.67.14-1.01.14-.52,0-1.04.05-1.56.06-2.26.03-4.41-.33-6.27-1.72-1.82-1.35-2.72-3.39-3.14-5.73-.15-.82-.2-1.66-.16-2.5.05-1.29.19-2.55.67-3.75.88-2.19,2.54-3.7,4.67-4.74,1.64-.8,3.48-1.1,5.3-.93.52.05,1.03.1,1.54.21.18.04.29.13.27.33-.01.11,0,.23,0,.34,0,2.93,0,5.86,0,8.79Z"/>
        <path class="cls-2" d="M36.02,48.34c0,7.18,0,14.35,0,21.53,0,.97-.1,1.07-1.05,1.07-2.5,0-5.01,0-7.51,0-.86,0-.98-.11-.98-.99,0-11.32,0-22.65,0-33.97,0-3.08,0-6.15,0-9.23,0-.13,0-.26,0-.39.02-.51.17-.67.68-.69.29-.01.59,0,.88,0,2.34,0,4.68,0,7.03,0,.53,0,.96.43.96.96,0,7.24,0,14.48,0,21.72Z"/>
      </g>
    </g>
  </g>
</svg>