<?xml version="1.0" encoding="UTF-8"?>
<svg id="Capa_2" data-name="Capa 2" xmlns="http://www.w3.org/2000/svg" viewBox="0 0 73.82 100">
  <defs>
    <style>
      .cls-1 {
        fill: #fff;
        stroke-width: 0px;
      }
    </style>
  </defs>
  <g id="Capa_1-2" data-name="Capa 1">
    <path id="java_-_blanco" data-name="java - blanco" class="cls-1" d="M47.08,0c.36.56.75,1.09,1.08,1.67.94,1.65,1.41,3.43,1.47,5.35.1,3.09-.89,5.85-2.4,8.47-1.83,3.18-4.25,5.86-6.98,8.27-1.56,1.37-3.2,2.66-4.76,4.03-2.19,1.91-4.17,4.01-5.44,6.68-1.38,2.89-1.3,5.78-.05,8.68.88,2.04,2.17,3.84,3.39,5.69,1.23,1.85,2.38,3.75,3.56,5.64.05.09.07.2.13.37-.15-.05-.26-.06-.31-.11-2.29-2.21-4.63-4.38-6.85-6.67-1.7-1.76-3.24-3.69-4.44-5.84-1.06-1.9-1.83-3.87-1.73-6.11.08-1.86.82-3.46,1.88-4.93,1.63-2.26,3.66-4.13,5.81-5.87,1.59-1.29,3.18-2.58,4.8-3.83,2.14-1.65,4.21-3.37,6.07-5.34,1.72-1.83,3.23-3.84,4.13-6.21.98-2.6,1.31-5.29.77-8.05-.12-.62-.22-1.25-.32-1.87.07,0,.13,0,.2,0ZM73.82,90.49c-.87.67-1.67,1.47-2.62,1.99-2.67,1.46-5.59,2.31-8.55,2.94-3.08.66-6.19,1.17-9.3,1.66-1.86.29-3.74.45-5.61.63-1.49.14-2.98.22-4.47.3-2.61.14-5.22.29-7.83.36-1.59.05-3.18-.02-4.77-.08-3.03-.11-6.07-.2-9.1-.41-2.17-.15-4.32-.46-6.49-.71-.54-.06-1.08-.15-1.62-.22-.02.05-.04.09-.06.14.21.12.41.28.64.35,1.5.43,2.98.95,4.5,1.22,2.09.37,4.21.6,6.32.81,2.13.21,4.27.45,6.41.46,6.42.02,12.84.28,19.24-.45,2.9-.33,5.82-.58,8.7-1.05,3.45-.56,6.86-1.36,10.04-2.89,2.02-.97,3.82-2.18,4.57-4.46v-.59ZM73.82,60.33c-.04-.12-.07-.25-.1-.37-.38-1.58-1.12-2.94-2.4-3.97-2.16-1.72-4.64-2.29-7.33-1.88-1.07.16-2.17.34-3.08,1.01-.29.22-.54.49-.81.74.03.05.07.09.1.14.36-.09.72-.17,1.07-.28,1.99-.61,3.89-.42,5.65.73,1.22.8,2.11,1.87,2.45,3.33.49,2.08-.13,3.92-1.28,5.63-1.37,2.02-3.18,3.6-5.18,4.95-1.39.93-2.86,1.73-4.28,2.61-.28.17-.51.42-.76.64.03.04.06.09.1.13.11-.01.23,0,.33-.04,2.1-.73,4.22-1.4,6.28-2.23,1.7-.68,3.29-1.63,4.75-2.76,1.49-1.16,2.82-2.47,3.63-4.2.37-.8.59-1.68.88-2.52v-1.66ZM67.7,85.8c.47.68.42,1.47-.17,2.03-.3.29-.65.55-1.02.74-2.21,1.16-4.64,1.6-7.05,1.99-2.74.44-5.51.71-8.26,1.03-1.55.18-3.1.35-4.65.44-2.85.17-5.71.37-8.56.38-4.44.02-8.87-.07-13.31-.17-2.84-.06-5.67-.29-8.49-.66-2.95-.39-5.89-.82-8.68-1.94-.43-.17-.92-.34-1-.89-.08-.58.37-.86.78-1.13.05-.04.11-.07.17-.1,1.92-1.08,3.98-1.75,6.15-2.1.8-.13,1.61-.21,2.42-.31-.3-.23-.63-.44-.96-.45-1.29-.03-2.61-.16-3.88.03-2.78.41-5.45,1.24-7.95,2.55-1,.52-1.96,1.09-2.71,1.95-.76.86-.67,1.79.25,2.47.82.61,1.77.9,2.75,1.07,2.43.43,4.87.83,7.31,1.16,1.98.27,3.97.42,5.96.61,1.63.16,3.26.37,4.9.46,2.58.14,5.16.28,7.74.29,3.07.01,6.14-.11,9.21-.16,2.83-.05,5.65-.21,8.45-.59,2.75-.36,5.52-.66,8.25-1.11,1.97-.33,3.91-.82,5.85-1.31,2.27-.57,4.51-1.3,6.51-2.55.55-.35,1.08-.81,1.47-1.33.71-.94-.22-2.47-1.63-2.7.07.12.12.21.18.29ZM40.41,58.36c.15-.08.3-.15.44-.24.98-.67,1.99-1.29,2.92-2.02,1.71-1.34,3.16-2.9,4.06-4.91,1.01-2.26.8-4.46-.49-6.52-.97-1.54-2.09-2.98-3.08-4.51-.75-1.17-1.31-2.43-1.4-3.86-.1-1.69.53-3.12,1.49-4.44,1.19-1.63,2.68-2.96,4.24-4.21,3.26-2.6,6.81-4.77,10.4-6.88.13-.07.24-.17.37-.25-.14-.09-.23-.09-.32-.07-2.85.79-5.63,1.8-8.34,3.01-2.62,1.17-5.11,2.55-7.4,4.28-1.94,1.46-3.63,3.14-4.87,5.25-1.22,2.08-1.6,4.33-1.25,6.68.38,2.53,1.6,4.72,3.14,6.73.7.92,1.44,1.81,2.08,2.76.68.99.97,2.15.91,3.33-.07,1.7-.77,3.17-1.84,4.48-.37.44-.76.86-1.14,1.29.02.03.04.06.06.08ZM23.4,77.36c-1.32.41-2.62.86-3.71,1.78-.98.82-1.05,1.96-.12,2.82.78.73,1.69,1.26,2.68,1.65,2.12.82,4.31,1.35,6.56,1.62,1.22.15,2.45.35,3.68.37,1.96.04,3.93,0,5.89-.09,2.42-.11,4.83-.44,7.17-1.05,2.07-.54,4.1-1.24,6.15-1.88.33-.1.64-.28,1.03-.45-.17-.12-.25-.2-.34-.25-1.65-.8-3.3-1.61-4.95-2.4-.16-.08-.38-.12-.56-.09-.99.16-1.98.39-2.98.52-2.04.26-4.09.55-6.14.7-1.88.13-3.77.16-5.65.08-2.12-.09-4.24-.31-6.35-.59-.9-.12-1.78-.46-2.62-.84-.52-.23-.51-.75-.12-1.19.2-.23.41-.44.68-.73-.17,0-.25-.02-.32,0ZM25.45,54.99c-.19-.01-.38-.05-.56-.03-1.45.12-2.91.22-4.36.4-2,.25-3.96.74-5.86,1.42-1.09.38-2.19.74-3.24,1.21-.97.43-1.93.94-2.83,1.51-.81.52-.75,1.35.06,1.89,1.11.75,2.39,1.04,3.66,1.27,1.72.31,3.47.54,5.21.72,1.94.2,3.88.43,5.82.44,5.13.04,10.27.19,15.39-.35,2.15-.23,4.31-.32,6.44-.64,2.7-.41,5.37-.98,8.05-1.5.25-.05.5-.16.72-.28,1.09-.58,2.17-1.19,3.25-1.77.32-.17.65-.33.97-.49-.01-.04-.03-.09-.04-.13-.37.06-.75.14-1.12.19-2.75.39-5.5.81-8.25,1.14-2.37.29-4.74.51-7.12.72-1.29.11-2.59.15-3.89.22-2.43.12-4.86.3-7.29.36-3.9.1-7.8,0-11.67-.5-.99-.13-1.96-.44-2.9-.79-.66-.25-.71-.74-.18-1.2.37-.33.8-.63,1.24-.84,2.41-1.13,4.95-1.87,7.52-2.54.34-.09.68-.17,1.02-.26,0-.05-.02-.11-.03-.16ZM54.43,71.38s-.08-.05-.13-.07c-1.39-.52-2.61-1.3-3.74-2.25-.13-.11-.39-.14-.58-.11-.58.09-1.14.26-1.72.34-2.52.35-5.04.74-7.58,1.01-2.27.24-4.56.39-6.85.45-1.67.05-3.34-.07-5.01-.18-1.96-.13-3.92-.28-5.87-.52-.77-.09-1.54-.39-2.25-.71-.61-.28-.74-.88-.45-1.5.14-.29.35-.54.55-.79.15-.2.34-.37.51-.55-.02-.04-.05-.08-.07-.12-.4.14-.82.26-1.21.42-1.25.51-2.49,1.03-3.47,2.01-.78.77-.84,1.71-.06,2.44.42.39.92.73,1.44.98,1.68.8,3.48,1.2,5.31,1.55,2.98.56,6,.72,9.01.78,2.1.04,4.22-.11,6.32-.27,2.18-.17,4.36-.41,6.53-.7,1.41-.19,2.81-.51,4.21-.8,1.1-.23,2.19-.48,3.28-.75.61-.15,1.2-.34,1.8-.52,0-.05,0-.1.01-.15Z"/>
  </g>
</svg>