<?xml version="1.0" encoding="UTF-8"?>
<svg id="Capa_2" data-name="Capa 2" xmlns="http://www.w3.org/2000/svg" viewBox="0 0 87.99 100">
  <defs>
    <style>
      .cls-1 {
        fill: #fcfcfc;
      }

      .cls-1, .cls-2, .cls-3 {
        stroke-width: 0px;
      }

      .cls-2 {
        fill: #fdd83c;
      }

      .cls-3 {
        fill: #d4b830;
      }
    </style>
  </defs>
  <g id="Capa_1-2" data-name="Capa 1">
    <g id="JS">
      <g>
        <polygon class="cls-1" points="14.86 60.74 14.89 71.28 40.7 78.24 40.7 19.29 31.95 19.29 31.85 65.37 14.86 60.74"/>
        <polygon class="cls-1" points="47.91 57.65 64.93 54.74 64.69 63.25 47.53 67.81 47.7 78.24 71.41 72.07 71.41 72.07 73.78 43.27 56.28 45.23 56.28 29.86 74.95 29.79 75.7 19.29 47.53 19.42 47.91 57.65"/>
      </g>
      <g>
        <path id="path5113" class="cls-3" d="M8.17,89.91L0,0l87.99.03-8.1,89.81-35.96,10.16-35.76-10.09ZM73.27,85l6.83-77.01h-36.03l.27,84.93,28.93-7.93ZM40.7,19.29h-8.75l-.1,46.09-16.99-4.63.03,10.54,25.81,6.97V19.29h0Z"/>
        <path id="path5117" class="cls-2" d="M44.06,8h36.03l-6.83,77.01-28.93,7.93-.27-84.93ZM71.41,72.07l2.37-28.79-17.5,1.96v-15.37l18.67-.07.75-10.5-28.17.14.38,38.23,17.02-2.92-.24,8.51-17.16,4.56.17,10.43,23.71-6.18h0Z"/>
      </g>
    </g>
  </g>
</svg>