<?xml version="1.0" encoding="UTF-8"?>
<svg id="Capa_2" data-name="Capa 2" xmlns="http://www.w3.org/2000/svg" viewBox="0 0 90.81 100">
  <defs>
    <style>
      .cls-1 {
        fill: #8cc84b;
        stroke-width: 0px;
      }
    </style>
  </defs>
  <g id="Capa_1-2" data-name="Capa 1">
    <path id="node.js" class="cls-1" d="M41.29,1.07c2.51-1.42,5.71-1.43,8.16,0l37.47,21.12c2.34,1.32,3.91,3.93,3.89,6.63v42.35c.02,2.81-1.71,5.48-4.18,6.78l-37.27,21.03c-2.6,1.43-5.77,1.35-8.28-.23l-11.18-6.46c-.76-.45-1.62-.82-2.16-1.55.48-.64,1.32-.72,2.01-1,1.56-.5,2.98-1.25,4.41-2.06.36-.25.8-.16,1.15.07l9.54,5.52c.68.39,1.37-.13,1.95-.45l36.6-20.65c.45-.22.7-.7.67-1.19V29.01c.05-.56-.27-1.08-.78-1.31L46.1,6.77c-.44-.3-1.02-.3-1.46,0L7.52,27.75c-.5.23-.85.74-.78,1.3v41.95c-.04.5.22.96.67,1.18l9.92,5.6c1.86,1,4.15,1.57,6.2.83,1.84-.69,3.05-2.46,3.05-4.42v-41.7c-.03-.62.55-1.13,1.15-1.07h4.77c.63-.02,1.12.65,1.04,1.27v41.96c0,3.73-1.54,7.78-4.99,9.61-4.25,2.2-9.5,1.73-13.7-.38l-10.67-5.9C1.67,76.73-.02,74.02,0,71.21V28.85c.02-2.8,1.56-5.37,4.02-6.72L41.29,1.07ZM52.09,30.43c5.42-.31,11.22-.21,16.09,2.46,3.77,2.05,5.87,6.34,5.94,10.54-.11.56-.7.88-1.24.84-1.57,0-3.14.02-4.72,0-.67.03-1.05-.59-1.14-1.18-.45-2.01-1.55-3.99-3.44-4.96-2.9-1.45-6.26-1.38-9.42-1.35-2.31.13-4.79.32-6.75,1.68-1.51,1.03-1.96,3.14-1.42,4.78.5,1.2,1.89,1.59,3.02,1.95,6.53,1.71,13.45,1.57,19.86,3.79,2.65.92,5.25,2.7,6.16,5.47,1.19,3.72.67,8.17-1.98,11.16-2.15,2.46-5.27,3.76-8.39,4.52-4.15.93-8.46.95-12.67.53-3.96-.45-8.08-1.49-11.14-4.19-2.62-2.27-3.89-5.81-3.76-9.22.03-.58.61-.98,1.16-.93h4.71c.63-.04,1.1.5,1.13,1.1.29,1.88,1.01,3.92,2.68,5.02,3.22,2.08,7.26,1.93,10.94,1.99,3.05-.13,6.48-.18,8.97-2.2,1.32-1.15,1.7-3.07,1.35-4.73-.39-1.4-1.88-2.05-3.14-2.51-6.45-2.04-13.44-1.3-19.83-3.61-2.59-.92-5.1-2.65-6.09-5.31-1.39-3.76-.75-8.43,2.17-11.32,2.82-2.87,6.96-3.98,10.89-4.37l.06.08Z"/>
  </g>
</svg>