<?xml version="1.0" encoding="UTF-8"?>
<svg id="Capa_2" data-name="Capa 2" xmlns="http://www.w3.org/2000/svg" viewBox="0 0 100 100">
  <defs>
    <style>
      .cls-1 {
        fill: #fff;
        stroke-width: 0px;
      }
    </style>
  </defs>
  <g id="DESIGNER">
    <g id="BLANCO">
      <g id="PHOTOSHOP">
        <path class="cls-1" d="M41.91,35.51c-1.02-.61-2.15-1-3.33-1.09-1.65-.13-3.32-.12-4.97-.16-.66-.02-1.32,0-2.01,0v14.12c1.37,0,2.71.01,4.05,0,1.7-.02,3.37-.29,4.96-.9,2.05-.79,3.6-2.1,4.05-4.36.17-.86.24-1.77.19-2.64-.13-2.13-1.06-3.85-2.93-4.97Z"/>
        <path class="cls-1" d="M82.38,0H17.62C7.89,0,0,7.89,0,17.62v64.77c0,9.73,7.89,17.62,17.62,17.62h64.77c9.73,0,17.62-7.89,17.62-17.62V17.62c0-9.73-7.89-17.62-17.62-17.62ZM52.89,47.01c-1.56,3.96-4.5,6.5-8.45,7.92-2.59.93-5.3,1.26-8.04,1.28-1.45.01-2.91-.03-4.36-.05-.15,0-.3,0-.5,0v.61c0,4.16,0,8.32,0,12.48,0,.72-.12.84-.85.84-2.49,0-4.99,0-7.48,0-.59,0-.7-.11-.7-.71,0-14.16,0-28.31,0-42.47,0-.52.09-.63.58-.64,4.22-.08,8.45-.19,12.67-.23,2.48-.03,4.95.18,7.36.87,3.24.93,6.03,2.55,8.08,5.29,1.5,2.02,2.32,4.31,2.61,6.78.32,2.74.1,5.44-.92,8.01ZM82.48,61.49c-.52,4.55-3.27,7.23-7.47,8.61-2.12.7-4.31.88-6.52.87-2.53-.02-5.03-.31-7.46-1.04-.7-.21-1.38-.5-2.06-.77-.42-.17-.61-.48-.6-.94.01-1.16,0-2.33,0-3.49,0-1.15,0-2.3,0-3.45,0-.63.18-.73.72-.43,3.45,1.91,7.14,2.74,11.06,2.5.76-.05,1.54-.24,2.24-.53,1.26-.52,1.53-2,.57-2.98-.41-.42-.91-.79-1.44-1.03-1.43-.66-2.9-1.23-4.35-1.85-1.87-.79-3.66-1.72-5.25-3-5.43-4.38-4.16-12.41,1.35-15.63,2.19-1.28,4.56-1.83,7.06-1.92,2.72-.1,5.43.04,8.09.67.62.15,1.21.39,1.82.58.36.12.55.36.56.74.01.35.03.69.03,1.04,0,1.87,0,3.74,0,5.62,0,.74-.4.99-1.08.65-2.92-1.46-6.05-1.93-9.27-1.87-.65.01-1.32.15-1.96.34-1.47.44-1.86,2.11-.78,3.21.8.81,1.83,1.23,2.85,1.68,1.7.75,3.43,1.4,5.11,2.18,1.53.72,3.01,1.54,4.24,2.74,2.13,2.07,2.87,4.64,2.54,7.51Z"/>
      </g>
    </g>
  </g>
</svg>