<?xml version="1.0" encoding="UTF-8"?>
<svg id="Capa_2" data-name="Capa 2" xmlns="http://www.w3.org/2000/svg" viewBox="0 0 100 100">
  <defs>
    <style>
      .cls-1 {
        fill: #00005b;
      }

      .cls-1, .cls-2 {
        stroke-width: 0px;
      }

      .cls-2 {
        fill: #99f;
      }
    </style>
  </defs>
  <g id="DESIGNER">
    <g id="COLOR">
      <g id="PREMIERE_PRO" data-name="PREMIERE PRO">
        <rect class="cls-1" width="100" height="100" rx="17.62" ry="17.62"/>
        <path class="cls-2" d="M23.85,48.11c0-7.03,0-14.05,0-21.08,0-.8.03-.82.82-.84,3.06-.07,6.12-.15,9.17-.2,1.51-.03,3.01-.04,4.52,0,2.6.06,5.14.42,7.59,1.34,3.85,1.45,6.74,3.93,8.29,7.81.85,2.12,1.17,4.33,1.05,6.61-.08,1.62-.31,3.22-.85,4.76-1.18,3.37-3.44,5.79-6.54,7.47-1.75.95-3.64,1.46-5.58,1.8-2.5.43-5.01.46-7.54.39-.51-.01-1.01-.03-1.52-.04-.38,0-.38,0-.38.4,0,.11,0,.22,0,.33,0,4.08,0,8.15,0,12.23,0,.11,0,.22,0,.33-.02.46-.18.63-.63.64-.59,0-1.17,0-1.76,0-1.93,0-3.87,0-5.8,0-.13,0-.25,0-.38,0-.31-.03-.42-.14-.45-.44-.02-.17,0-.35,0-.52,0-6.99,0-13.99,0-20.98Z"/>
        <path class="cls-2" d="M70,41.16c.24-.12.33-.28.45-.4,2.02-2.11,4.38-3.63,7.23-4.35.96-.24,1.93-.36,2.92-.36.65,0,.79.13.8.76,0,.71,0,1.43,0,2.14,0,1.81,0,3.62,0,5.42,0,.14,0,.29-.01.43-.04.27-.15.38-.44.41-.2.02-.41.01-.62.01-2.58,0-5.07.47-7.45,1.49-.7.3-1.34.72-1.91,1.22-.27.24-.38.49-.38.86.01,6.77,0,13.54,0,20.32,0,.19,0,.38-.01.57-.03.3-.16.41-.46.45-.09.01-.19,0-.29,0-2.62,0-5.23,0-7.85,0-.08,0-.16,0-.24,0-.33-.03-.52-.2-.56-.54-.02-.16-.01-.32-.01-.48,0-7.93,0-15.86,0-23.79,0-2.08-.07-4.15-.13-6.23-.02-.57-.08-1.14-.13-1.71-.05-.53.06-.66.58-.66,2.28,0,4.57,0,6.85,0,.73,0,1.01.18,1.2.89.27,1,.42,2.02.46,3.05,0,.14,0,.28,0,.48Z"/>
        <path class="cls-1" d="M32.91,41.25c0-2.16,0-4.31,0-6.47,0-.52-.07-.53.51-.53,1.84.01,3.67-.14,5.51,0,1.31.1,2.57.38,3.76.93,1.89.87,3.01,2.37,3.41,4.4.24,1.24.18,2.49-.12,3.73-.41,1.72-1.55,2.87-3.03,3.72-.96.55-2.03.8-3.1,1.03-1.01.21-2.03.31-3.07.31-.76,0-1.52,0-2.28,0-.36,0-.73-.01-1.09-.04-.51-.03-.51-.04-.51-.55,0-2.17,0-4.34,0-6.52Z"/>
      </g>
    </g>
  </g>
</svg>