<?xml version="1.0" encoding="UTF-8"?>
<svg id="Capa_2" data-name="Capa 2" xmlns="http://www.w3.org/2000/svg" viewBox="0 0 100 100">
  <defs>
    <style>
      .cls-1 {
        fill: #fff;
        stroke-width: 0px;
      }
    </style>
  </defs>
  <g id="DESIGNER">
    <g id="BLANCO">
      <g id="PREMIERE_PRO" data-name="PREMIERE PRO">
        <path class="cls-1" d="M82.38,0H17.62C7.89,0,0,7.89,0,17.62v64.77c0,9.73,7.89,17.62,17.62,17.62h64.77c9.73,0,17.62-7.89,17.62-17.62V17.62c0-9.73-7.89-17.62-17.62-17.62ZM55.29,41.74c-.08,1.62-.31,3.22-.85,4.76-1.18,3.37-3.44,5.79-6.54,7.47-1.75.95-3.64,1.46-5.58,1.8-2.5.43-5.01.46-7.54.39-.51-.01-1.01-.03-1.52-.04-.38,0-.38,0-.38.4,0,.11,0,.22,0,.33v12.23c0,.11,0,.22,0,.33-.02.46-.18.63-.63.64-.59,0-1.17,0-1.76,0-1.93,0-3.87,0-5.8,0-.13,0-.25,0-.38,0-.31-.03-.42-.14-.45-.44-.02-.17,0-.35,0-.52,0-6.99,0-13.99,0-20.98s0-14.05,0-21.08c0-.8.03-.82.82-.84,3.06-.07,6.12-.15,9.17-.2,1.51-.03,3.01-.04,4.52,0,2.6.06,5.14.42,7.59,1.34,3.85,1.45,6.74,3.93,8.29,7.81.85,2.12,1.17,4.33,1.05,6.61ZM81.39,44.38c0,.14,0,.29-.01.43-.04.27-.15.38-.44.41-.2.02-.41.01-.62.01-2.58,0-5.07.47-7.45,1.49-.7.3-1.34.72-1.91,1.22-.27.24-.38.49-.38.86.01,6.77,0,13.54,0,20.32,0,.19,0,.38-.01.57-.03.3-.16.41-.46.45-.09.01-.19,0-.29,0-2.62,0-5.23,0-7.85,0-.08,0-.16,0-.24,0-.33-.03-.52-.2-.56-.54-.02-.16-.01-.32-.01-.48,0-7.93,0-15.86,0-23.79,0-2.08-.07-4.15-.13-6.23-.02-.57-.08-1.14-.13-1.71-.05-.53.06-.66.58-.66,2.28,0,4.57,0,6.85,0,.73,0,1.01.18,1.2.89.27,1,.42,2.02.46,3.05,0,.14,0,.28,0,.48.24-.12.33-.28.45-.4,2.02-2.11,4.38-3.63,7.23-4.35.96-.24,1.93-.36,2.92-.36.65,0,.79.13.8.76,0,.71,0,1.43,0,2.14,0,1.81,0,3.62,0,5.42Z"/>
        <path class="cls-1" d="M42.7,35.18c-1.19-.55-2.45-.83-3.76-.93-1.84-.14-3.67.02-5.51,0-.58,0-.51.01-.51.53,0,2.16,0,4.31,0,6.47s0,4.34,0,6.52c0,.52,0,.52.51.55.36.02.73.03,1.09.04.76,0,1.52,0,2.28,0,1.03,0,2.06-.09,3.07-.31,1.07-.23,2.14-.48,3.1-1.03,1.49-.85,2.62-1.99,3.03-3.72.3-1.23.36-2.48.12-3.73-.4-2.03-1.52-3.53-3.41-4.4Z"/>
      </g>
    </g>
  </g>
</svg>