<?xml version="1.0" encoding="UTF-8"?>
<svg id="Capa_2" data-name="Capa 2" xmlns="http://www.w3.org/2000/svg" viewBox="0 0 100 88.96">
  <defs>
    <style>
      .cls-1 {
        fill: #fff;
        stroke-width: 0px;
      }
    </style>
  </defs>
  <g id="Capa_1-2" data-name="Capa 1">
    <path id="react_-_blanco" data-name="react - blanco" class="cls-1" d="M32.22,88.96h-4.18c-.1-.03-.19-.08-.29-.1-.91-.21-1.79-.52-2.61-.98-2.14-1.19-3.55-3.01-4.5-5.22-1.04-2.44-1.4-5.01-1.48-7.63-.06-1.83,0-3.67.25-5.49.11-.8.18-1.62.33-2.41.35-1.83.74-3.66,1.11-5.49.02-.11.04-.23.06-.36-.16-.06-.3-.11-.44-.15-2.57-.74-5.08-1.62-7.53-2.7-3-1.32-5.84-2.9-8.32-5.07-1.27-1.11-2.37-2.36-3.22-3.83-.81-1.39-1.31-2.88-1.39-4.5-.12-2.16.48-4.13,1.62-5.95,1.05-1.67,2.41-3.04,3.95-4.24,2.47-1.94,5.22-3.38,8.1-4.59,2.15-.91,4.34-1.67,6.58-2.32.22-.06.44-.14.66-.21-.02-.11-.02-.17-.03-.23-.51-2.07-.95-4.15-1.25-6.26-.1-.72-.23-1.43-.3-2.15-.09-.94-.14-1.89-.17-2.84-.06-1.72,0-3.44.23-5.14.24-1.8.67-3.55,1.45-5.2,1.44-3.03,3.71-5.06,7.04-5.78.11-.02.22-.07.33-.11,1.25,0,2.49,0,3.74,0,.08.03.16.07.25.09.49.11.99.2,1.48.32,2.44.62,4.67,1.71,6.81,3.01,2.93,1.78,5.58,3.91,8.1,6.22.47.43.93.86,1.41,1.31.12-.1.22-.19.32-.27,1.02-.93,2.02-1.88,3.07-2.77,2.5-2.15,5.17-4.07,8.11-5.6,1.78-.93,3.64-1.66,5.61-2.08.3-.06.6-.14.9-.22,1.25,0,2.49,0,3.74,0,.1.03.19.08.29.1.78.17,1.55.4,2.28.74,2.29,1.09,3.84,2.88,4.89,5.14,1.03,2.23,1.46,4.6,1.6,7.02.16,2.82-.04,5.62-.45,8.41-.29,1.96-.7,3.9-1.16,5.83-.04.15-.05.31-.08.48.2.06.35.12.5.17,2.72.79,5.39,1.73,7.97,2.91,2.39,1.09,4.69,2.36,6.77,3.99,1.58,1.23,2.97,2.63,4.04,4.34.96,1.52,1.53,3.18,1.62,4.98.08,1.6-.27,3.12-.95,4.57-.96,2.02-2.41,3.65-4.11,5.07-2.26,1.89-4.81,3.31-7.47,4.52-2.54,1.15-5.17,2.07-7.85,2.86-.17.05-.33.1-.52.16.03.18.05.33.08.47.12.51.24,1.01.35,1.51.64,2.84,1.1,5.7,1.26,8.61.12,2.19.09,4.38-.26,6.56-.3,1.89-.81,3.71-1.74,5.39-1.48,2.67-3.65,4.44-6.68,5.07-.07.01-.13.05-.2.08h-4.27c-.15-.05-.3-.12-.45-.16-.74-.2-1.5-.37-2.23-.61-2.38-.79-4.56-1.98-6.65-3.35-2.49-1.63-4.78-3.51-6.96-5.52-.44-.41-.89-.82-1.35-1.25-.12.1-.22.18-.32.27-1,.91-1.98,1.83-3,2.71-2.35,2.03-4.85,3.85-7.58,5.34-2.07,1.13-4.22,2.02-6.55,2.47-.11.02-.22.07-.33.1ZM64.75,59.59s.03.06.04.09c2.95-.36,5.88-.86,8.77-1.51-.05-.85-2.68-7.93-3.13-8.43-.11.2-.21.4-.32.59-1.15,2.04-2.28,4.09-3.44,6.12-.61,1.07-1.28,2.1-1.92,3.15ZM55.62,24.2c.22-.02.16-.1.04-.2-1.68-2.29-5.2-6.44-5.72-6.73-1.97,2.16-3.85,4.4-5.61,6.75-.06.06-.13.12,0,.17.62-.02,1.24-.06,1.87-.07,3.14-.04,6.29-.08,9.43.07ZM49.98,28.38s0,.04,0,.06c-.52,0-1.04,0-1.56,0-2.34,0-4.68.12-7.02.27-.39.03-.61.17-.81.48-3.18,4.73-6.02,9.66-8.54,14.77-.19.38-.2.69,0,1.07,2.51,5.08,5.33,9.99,8.49,14.7.25.37.52.55.96.57,2.06.08,4.11.22,6.17.25,2.1.03,4.21,0,6.31-.06,1.53-.03,3.05-.13,4.57-.2.35-.01.59-.14.8-.45,3.19-4.74,6.04-9.68,8.57-14.81.2-.4.18-.71-.01-1.11-1.93-3.93-4.05-7.75-6.39-11.45-.73-1.17-1.51-2.31-2.26-3.46-.12-.19-.26-.29-.5-.3-.78-.04-1.57-.12-2.35-.15-2.15-.08-4.3-.13-6.44-.19ZM46.96,14.07c-.43-.41-.83-.78-1.23-1.16-2.04-1.89-4.18-3.64-6.51-5.16-1.92-1.25-3.92-2.34-6.13-3-1.13-.34-2.28-.55-3.46-.48-1.38.08-2.6.56-3.57,1.57-.92.95-1.45,2.12-1.83,3.36-.45,1.48-.65,3.01-.71,4.56-.07,1.66-.01,3.31.18,4.96.08.69.14,1.38.27,2.06.33,1.78.7,3.54,1.05,5.32.03.17.09.33.14.51.16-.01.28-.02.39-.04,2.07-.38,4.13-.78,6.2-1.15.68-.12,1.38-.18,2.07-.27,1.39-.18,2.79-.37,4.18-.52.34-.04.56-.14.76-.43,2.2-3.1,4.54-6.08,7.08-8.91.35-.4.71-.79,1.11-1.24ZM77.89,31.92c-.07.17-.11.28-.15.39-1.27,4.02-2.8,7.93-4.56,11.76-.14.31-.14.57,0,.88,1.73,3.79,3.25,7.66,4.52,11.64.05.15.11.3.18.48.22-.05.41-.09.59-.14,2.68-.79,5.3-1.72,7.82-2.91,2.1-.99,4.1-2.13,5.88-3.63,1.07-.9,2.04-1.9,2.72-3.14.93-1.69,1.02-3.4.15-5.15-.44-.89-1.03-1.66-1.72-2.36-1.61-1.66-3.52-2.89-5.55-3.96-2.28-1.21-4.68-2.16-7.13-2.98-.9-.3-1.81-.56-2.76-.86ZM25.18,62.36c-.05.16-.09.28-.12.41-.23,1.03-.46,2.05-.67,3.08-.19.91-.39,1.82-.51,2.74-.15,1.14-.22,2.3-.3,3.45-.17,2.27-.09,4.53.4,6.77.29,1.33.74,2.59,1.55,3.71.82,1.13,1.9,1.85,3.28,2.12,1.19.23,2.36.11,3.52-.16,1.85-.43,3.56-1.22,5.2-2.16,3.4-1.96,6.4-4.44,9.22-7.15.07-.07.13-.15.2-.24-.1-.12-.19-.22-.28-.32-.75-.86-1.52-1.7-2.26-2.57-2.01-2.36-3.91-4.81-5.7-7.34-.13-.19-.28-.26-.51-.28-1.43-.16-2.86-.32-4.28-.5-2.59-.33-5.15-.77-7.7-1.32-.33-.07-.66-.13-1.02-.21ZM74.8,26.63c.05-.16.1-.27.13-.38.21-.92.43-1.84.62-2.77.41-1.94.67-3.9.83-5.88.18-2.22.17-4.44-.21-6.64-.23-1.32-.6-2.6-1.26-3.78-.82-1.46-1.99-2.45-3.66-2.79-1.14-.23-2.27-.14-3.39.11-2.09.46-4,1.38-5.83,2.46-3.2,1.9-6.04,4.27-8.72,6.85-.08.08-.15.18-.25.29.11.12.2.23.3.34,1.17,1.36,2.38,2.68,3.5,4.08,1.49,1.86,2.91,3.78,4.34,5.69.19.25.37.42.71.43.51.02,1.03.09,1.54.15.44.05.87.14,1.31.19.66.08,1.32.11,1.98.2,2.54.36,5.06.8,7.56,1.35.14.03.29.05.48.08ZM53.04,74.92c.12.13.22.24.32.34.37.35.73.69,1.1,1.03,2.12,1.93,4.34,3.73,6.76,5.27,1.8,1.13,3.67,2.12,5.73,2.72,1.25.36,2.51.58,3.82.42,1.15-.14,2.17-.58,3.01-1.39.98-.94,1.54-2.13,1.94-3.4.63-1.99.78-4.04.76-6.11-.01-1.3-.11-2.61-.25-3.9-.26-2.43-.74-4.83-1.32-7.21-.03-.11-.08-.21-.13-.33-.29.06-.55.13-.81.17-2.32.42-4.63.86-6.96,1.23-1.68.27-3.37.46-5.06.63-.38.04-.58.17-.78.46-2.2,3.09-4.55,6.07-7.08,8.9-.34.38-.69.77-1.05,1.17ZM22.12,57.04c.05-.13.1-.22.13-.32,1.26-4.02,2.81-7.93,4.55-11.77.15-.33.16-.59,0-.91-1.75-3.8-3.26-7.69-4.54-11.68-.04-.14-.1-.27-.15-.42-.13.03-.23.05-.33.07-2.57.74-5.08,1.62-7.52,2.72-2.11.96-4.14,2.06-5.97,3.5-1.17.92-2.24,1.95-3.02,3.23-1.19,1.94-1.26,3.9-.1,5.89.6,1.04,1.39,1.92,2.29,2.71,1.44,1.27,3.05,2.3,4.75,3.19,3.03,1.6,6.23,2.75,9.51,3.71.12.04.25.05.39.07ZM29.54,39.31c1.77-3.39,3.67-6.67,5.68-9.93-2.98.31-5.91.82-8.81,1.46.15,1.04,2.67,7.82,3.14,8.46ZM26.36,58.15c2.96.66,5.89,1.16,8.96,1.54-2.1-3.32-4.01-6.61-5.82-10.07-1.2,2.83-2.23,5.62-3.14,8.53ZM70.48,39.28c1.21-2.75,2.25-5.53,3.13-8.38-1.07-.43-8.23-1.62-8.86-1.47,2.03,3.22,3.93,6.48,5.73,9.84ZM50,71.8c.53-.59,1.02-1.14,1.51-1.7.49-.56.97-1.12,1.44-1.69.48-.58.96-1.16,1.43-1.76.45-.57.92-1.13,1.4-1.83-1.37.04-2.62.09-3.88.1-1.27.02-2.55,0-3.82,0-1.25,0-2.49-.13-3.85-.06,1.85,2.44,3.73,4.71,5.78,6.93ZM55.66,24c-.01.07-.03.13-.04.2.22-.02.16-.1.04-.2ZM44.33,24.19c0-.06,0-.11,0-.17-.06.06-.13.12,0,.17ZM64.75,59.59s.03.06.04.09c-.01-.03-.03-.06-.04-.09ZM58.9,44.6c.05-4.96-3.93-8.99-8.86-9-5.16-.01-8.94,4.22-8.96,8.86-.02,4.9,4.01,8.98,8.86,8.95,4.66.09,8.91-3.69,8.96-8.8Z"/>
  </g>
</svg>