<?xml version="1.0" encoding="UTF-8"?>
<svg id="Capa_2" data-name="Capa 2" xmlns="http://www.w3.org/2000/svg" viewBox="0 0 100 100">
  <defs>
    <style>
      .cls-1 {
        fill: #fff;
        stroke-width: 0px;
      }
    </style>
  </defs>
  <g id="Capa_1-2" data-name="Capa 1">
    <g>
      <path class="cls-1" d="M30.53,73.15c-1.13,1.33-2.03,2.8-2.5,4.5-.19.68-.31,1.37-.26,2.08.09,1.17.71,1.86,1.86,2.05.32.05.65.06.97.02,1.16-.14,2.3-.42,3.33-.98,4.24-2.28,6.41-5.86,6.67-10.46-.05-.63-.06-1.08-.11-1.52-.07-.7-.21-1.39-.41-2.06-.12-.4-.13-.4-.53-.21-.02,0-.03.02-.04.02-1.48.75-2.92,1.58-4.3,2.51-1.72,1.16-3.33,2.46-4.69,4.05Z"/>
      <path class="cls-1" d="M80.11,0H19.89C8.9,0,0,8.9,0,19.89v60.23c0,10.98,8.9,19.89,19.89,19.89h60.23c10.98,0,19.89-8.9,19.89-19.89V19.89c0-10.98-8.9-19.89-19.89-19.89ZM81.03,25.58c-.54,6.44-3.7,11.39-8.81,15.18-3.41,2.52-7.24,4.14-11.35,5.1-2.63.62-5.29.91-8,.81-2.05-.08-4.05-.38-5.98-1.11-1.11-.42-2.15-.98-3.04-1.78-.82-.73-1.44-1.6-1.75-2.67-.08-.26-.15-.53-.11-.81.05-.33.24-.43.55-.31.21.08.39.22.52.4.29.44.71.74,1.13,1.03,1.37.97,2.92,1.49,4.56,1.76,2.66.43,5.29.2,7.9-.41,4.96-1.16,9.39-3.36,13.23-6.72,1.87-1.64,3.45-3.52,4.58-5.75.65-1.27,1.13-2.61,1.32-4.03.32-2.27-.4-4.15-2.19-5.6-1.19-.95-2.57-1.49-4.04-1.83-2-.47-4.03-.52-6.08-.37-3.96.29-7.76,1.3-11.44,2.73-5.84,2.27-11.3,5.23-16.35,8.95-2.28,1.68-4.38,3.57-6.11,5.83-1.24,1.62-2.21,3.38-2.68,5.38-.68,2.89-.19,5.53,1.58,7.94.98,1.33,2.16,2.47,3.41,3.55,1.47,1.26,3.01,2.43,4.53,3.62,1.94,1.53,3.84,3.1,5.55,4.88.19.2.37.25.64.18,1.64-.43,3.31-.72,5-.84,3.21-.24,6.36,0,9.37,1.29,1.46.63,2.77,1.49,3.86,2.67,1.47,1.59,2.27,3.48,2.5,5.62.09.87.11,1.74-.11,2.6-.55,2.19-2.69,4.27-4.81,4.67-.31.06-.61.07-.92.04-.15-.02-.33-.04-.37-.22-.03-.15.11-.25.23-.31.21-.12.42-.23.64-.32,1.78-.7,2.7-2.08,3.07-3.89.26-1.28-.02-2.49-.68-3.6-1.02-1.73-2.48-3-4.29-3.85-1.53-.72-3.16-1.12-4.83-1.33-2.26-.28-4.51-.21-6.74.29-.78.18-.64.11-.45.78,1.37,4.8.72,9.36-1.75,13.66-1.46,2.53-3.42,4.57-6.08,5.86-1.33.64-2.7,1.18-4.13,1.54-1.22.3-2.45.49-3.71.46-.69-.02-1.36-.11-2.03-.3-1.75-.5-3-1.57-3.64-3.27-1-2.62-.83-5.2.47-7.7.9-1.74,2.17-3.19,3.6-4.52,1.94-1.8,4.12-3.29,6.38-4.66,1.41-.85,2.84-1.64,4.3-2.41.18-.09.38-.16.55-.34-.13-.21-.31-.31-.47-.43-2.02-1.5-4.13-2.88-6.18-4.34-1.98-1.41-3.94-2.85-5.76-4.46-1.49-1.32-2.9-2.72-4.09-4.32-.47-.63-.89-1.3-1.27-1.99-1.48-2.67-1.71-5.44-.65-8.32.82-2.23,2.03-4.22,3.47-6.08,2.41-3.11,5.27-5.76,8.4-8.11,6.28-4.71,13.21-8.16,20.71-10.43,2.71-.82,5.49-1.31,8.31-1.53,2.47-.2,4.93-.19,7.38.13,2.68.35,5.27,1.03,7.66,2.36,1.41.78,2.65,1.77,3.62,3.06,1.47,1.94,2.07,4.15,1.87,6.56Z"/>
    </g>
  </g>
</svg>