<?xml version="1.0" encoding="UTF-8"?>
<svg id="Capa_2" data-name="Capa 2" xmlns="http://www.w3.org/2000/svg" viewBox="0 0 100 100">
  <defs>
    <style>
      .cls-1 {
        fill: #cb6698;
      }

      .cls-1, .cls-2 {
        stroke-width: 0px;
      }

      .cls-2 {
        fill: #fff;
      }
    </style>
  </defs>
  <g id="Capa_1-2" data-name="Capa 1">
    <g id="sass">
      <rect class="cls-1" width="100" height="100" rx="19.89" ry="19.89"/>
      <path class="cls-2" d="M79.16,19.02c-.98-1.29-2.22-2.28-3.62-3.06-2.38-1.33-4.97-2-7.66-2.36-2.45-.32-4.92-.33-7.38-.13-2.82.22-5.61.71-8.31,1.53-7.51,2.28-14.43,5.73-20.71,10.43-3.14,2.35-6,5-8.4,8.11-1.44,1.86-2.66,3.86-3.47,6.08-1.06,2.88-.83,5.64.65,8.32.38.69.8,1.35,1.27,1.99,1.19,1.6,2.59,3,4.09,4.32,1.83,1.61,3.78,3.06,5.76,4.46,2.05,1.46,4.16,2.83,6.18,4.34.16.12.35.22.47.43-.18.17-.37.24-.55.34-1.46.76-2.9,1.55-4.3,2.41-2.26,1.37-4.43,2.85-6.38,4.66-1.43,1.32-2.7,2.78-3.6,4.52-1.3,2.49-1.47,5.07-.47,7.7.65,1.69,1.9,2.77,3.64,3.27.66.19,1.34.28,2.03.3,1.26.03,2.49-.15,3.71-.46,1.43-.36,2.8-.89,4.13-1.54,2.67-1.29,4.63-3.33,6.08-5.86,2.47-4.3,3.12-8.86,1.75-13.66-.19-.67-.33-.61.45-.78,2.23-.5,4.48-.57,6.74-.29,1.67.21,3.3.61,4.83,1.33,1.81.85,3.27,2.12,4.29,3.85.65,1.11.94,2.32.68,3.6-.37,1.8-1.29,3.19-3.07,3.89-.22.09-.43.2-.64.32-.12.07-.26.16-.23.31.03.18.21.21.37.22.31.03.61.02.92-.04,2.13-.4,4.26-2.48,4.81-4.67.22-.86.2-1.73.11-2.6-.23-2.14-1.03-4.03-2.5-5.62-1.09-1.18-2.39-2.04-3.86-2.67-3-1.29-6.15-1.53-9.37-1.29-1.69.12-3.36.41-5,.84-.26.07-.45.01-.64-.18-1.71-1.78-3.61-3.35-5.55-4.88-1.52-1.2-3.06-2.36-4.53-3.62-1.25-1.07-2.43-2.21-3.41-3.55-1.77-2.4-2.25-5.05-1.58-7.94.47-2.01,1.44-3.76,2.68-5.38,1.73-2.27,3.83-4.15,6.11-5.83,5.05-3.71,10.51-6.68,16.35-8.95,3.68-1.43,7.48-2.44,11.44-2.73,2.04-.15,4.07-.09,6.08.37,1.46.34,2.85.87,4.04,1.83,1.8,1.44,2.51,3.32,2.19,5.6-.2,1.42-.67,2.76-1.32,4.03-1.14,2.23-2.71,4.11-4.58,5.75-3.84,3.36-8.27,5.56-13.23,6.72-2.6.61-5.24.84-7.9.41-1.64-.26-3.19-.79-4.56-1.76-.42-.3-.84-.6-1.13-1.03-.13-.19-.31-.32-.52-.4-.31-.12-.5-.02-.55.31-.04.28.04.54.11.81.31,1.07.94,1.93,1.75,2.67.89.8,1.93,1.36,3.04,1.78,1.92.74,3.93,1.04,5.98,1.11,2.7.1,5.37-.2,8-.81,4.11-.97,7.94-2.58,11.35-5.1,5.12-3.78,8.27-8.73,8.81-15.18.2-2.41-.4-4.62-1.87-6.56ZM39.56,66.57c.4-.2.41-.2.53.21.2.68.33,1.36.41,2.06.05.44.07.89.11,1.52-.26,4.6-2.43,8.18-6.67,10.46-1.03.56-2.17.83-3.33.98-.32.04-.65.04-.97-.02-1.15-.19-1.78-.88-1.86-2.05-.05-.71.07-1.4.26-2.08.47-1.7,1.36-3.17,2.5-4.5,1.36-1.59,2.96-2.89,4.69-4.05,1.38-.93,2.82-1.76,4.3-2.51.02,0,.03-.02.04-.02Z"/>
    </g>
  </g>
</svg>