<?xml version="1.0" encoding="UTF-8"?>
<svg id="Capa_2" data-name="Capa 2" xmlns="http://www.w3.org/2000/svg" xmlns:xlink="http://www.w3.org/1999/xlink" viewBox="0 0 500.26 500.26">
  <defs>
    <style>
      .cls-1 {
        fill: url(#Degradado_sin_nombre_39);
        stroke: #1d1d1b;
        stroke-miterlimit: 10;
        stroke-width: .26px;
      }

      .cls-2 {
        fill: url(#Degradado_sin_nombre_24);
        filter: url(#drop-shadow-1);
        stroke-width: 0px;
      }
    </style>
    <linearGradient id="Degradado_sin_nombre_39" data-name="Degradado sin nombre 39" x1="420.88" y1="-45.62" x2="79.38" y2="545.88" gradientUnits="userSpaceOnUse">
      <stop offset="0" stop-color="#1f4437"/>
      <stop offset="1" stop-color="#11261f"/>
    </linearGradient>
    <linearGradient id="Degradado_sin_nombre_24" data-name="Degradado sin nombre 24" x1="333.69" y1="105.39" x2="166.09" y2="395.69" gradientUnits="userSpaceOnUse">
      <stop offset="0" stop-color="#e5af5a"/>
      <stop offset="1" stop-color="#8c6b37"/>
    </linearGradient>
    <filter id="drop-shadow-1" filterUnits="userSpaceOnUse">
      <feOffset dx="-4.84" dy="4.84"/>
      <feGaussianBlur result="blur" stdDeviation="4.84"/>
      <feFlood flood-color="#000" flood-opacity=".75"/>
      <feComposite in2="blur" operator="in"/>
      <feComposite in="SourceGraphic"/>
    </filter>
  </defs>
  <g id="DECORATION">
    <g id="BUNA_ICO" data-name="BUNA ICO">
      <rect class="cls-1" x=".13" y=".13" width="500" height="500"/>
      <path id="BUNA_LOGO" data-name="BUNA LOGO" class="cls-2" d="M267.48,96.19c10.12,0,20.05,1.36,29.64,4.06-5.97,41.85-25.61,73.69-59.84,97.12-10.92,7.48-21.52,15.45-31.76,23.16l-.15.11c-3.99,3-8.11,6.11-12.16,9.11-13.71,10.17-24.86,22.56-33.14,36.83-7.35,12.67-12.63,27.2-15.69,43.18-2.58,13.47-3.68,28.04-3.36,44.55-10.02-14.82-17.29-32.31-21.16-51.3-6.59-32.33-3.36-66.79,9.34-99.64,12.35-31.95,32.44-59.1,58.09-78.51,24.79-18.76,52.52-28.68,80.19-28.68M323.49,144.43c7.22,35.27-5.31,66.57-37.46,93.39-9.13,7.61-19.27,14.26-29.07,20.69-10.61,6.95-21.58,14.14-32.27,23.04-14.61,12.16-26.9,23.67-39.38,40.33-2.43,3.24-4.84,6.64-7.28,10.26.74-8.73,2.09-16.67,4.07-24.05,5.59-20.83,16.31-36.89,32.79-49.11,4.24-3.14,8.45-6.31,12.52-9.38,9.92-7.47,20.18-15.19,30.43-22.21,12.05-8.25,22.83-17.52,32.05-27.56,9.28-10.11,17.25-21.29,23.68-33.22,3.79-7.04,7.12-14.46,9.94-22.18M369.56,164.19c4.6,9.85,8.16,20.47,10.54,31.64,6.98,32.73,3.86,67.68-9.05,101.05-12.35,31.95-32.44,59.1-58.09,78.51-24.79,18.76-52.52,28.68-80.19,28.68-10.08,0-19.98-1.35-29.53-4.03,17.54-14.28,37.17-22.61,60.73-32.62,16.89-7.17,59.05-28.82,85.79-74.88,14.02-24.15,21.74-51.51,22.94-81.31.61-15-.45-30.8-3.15-47.04M321.38,268.69c-.98,1.89-2,3.76-3.07,5.6-21.24,36.6-55.01,53.91-68.55,59.66-12.93,5.49-25.31,10.75-37.2,16.95,10.33-13.62,23.24-26.86,34.96-35.72,4.66-3.33,11.68-6.96,19.81-11.16,11.4-5.89,24.31-12.57,37.2-21.69,6.15-4.35,11.76-8.88,16.85-13.63M267.48,84.33c-60.92,0-122.22,44.62-149.34,114.77-27.86,72.06-10.9,148.48,37.07,188.68-1.37-12.58-2.12-23.38-2.32-33.46-.32-15.77.71-29.61,3.15-42.31,2.81-14.67,7.63-27.95,14.3-39.47,7.46-12.87,17.53-24.05,29.94-33.25,4.13-3.06,8.32-6.22,12.38-9.27,10.14-7.63,20.63-15.53,31.32-22.85,39.77-27.23,61.43-64.95,66.04-115.15-13.86-5.21-28.19-7.68-42.54-7.68h0ZM321.29,104.39c-1.05,7.22-2.46,14.19-4.21,20.86-3.34,12.71-8.03,24.73-13.96,35.73-5.97,11.07-13.36,21.44-21.98,30.83-8.61,9.38-18.71,18.06-30.02,25.8-10.46,7.16-20.83,14.97-30.86,22.52-4.07,3.06-8.28,6.23-12.45,9.32-40.24,29.83-45.19,76.62-41.17,125.15,10.69-19.85,19.47-34.03,28.15-45.62,11.79-15.73,23.51-26.7,37.48-38.32,10.17-8.46,20.86-15.47,31.19-22.24,10.09-6.61,20.51-13.45,30.17-21.5,46.74-38.97,56.13-87.97,27.66-142.53h0ZM342.83,110.66c6.37,17.34,11.11,34.22,14.12,50.29,3.24,17.27,4.55,34.02,3.92,49.8-1.12,27.85-8.31,53.37-21.35,75.84-24.95,42.97-64.37,63.21-80.17,69.92-30.79,13.07-55.48,23.56-78.08,47.95,2.57,1.21,5.2,2.34,7.89,3.38,14.19,5.49,28.9,8.1,43.63,8.1,60.92,0,122.22-44.62,149.34-114.77,28.29-73.17,10.37-150.82-39.3-190.5h0ZM348.27,195.04c-1.16,6.67-2.79,13.07-4.89,19.13-2.99,8.64-7,16.84-11.92,24.37-8.35,12.77-19.39,23.92-33.77,34.08-12.22,8.64-24.75,15.12-35.8,20.84-8.6,4.45-16.02,8.29-21.39,12.15-14.57,10.98-30.83,28.25-42.44,45.09-7.03,10.19-14.82,23.68-18.08,37.12,8.47-7.91,17.73-14.77,28.35-21.03,14.33-8.45,29.75-15,46.08-21.93,14.63-6.21,51.14-24.94,74.17-64.62,14.45-24.89,21.01-53.37,19.7-85.19h0Z"/>
    </g>
  </g>
</svg>